<svg xmlns="http://www.w3.org/2000/svg" viewBox="0 0 400 120" fill="none">
  <!-- Bloom flower icon -->
  <g transform="translate(20, 10)">
    <path d="M50 6C54 20 64 25 50 42C36 25 46 20 50 6Z" fill="#059669"/>
    <path d="M88 42C74 46 69 56 50 42C69 28 74 38 88 42Z" fill="#059669" opacity="0.8"/>
    <path d="M50 78C46 64 36 59 50 42C64 59 54 64 50 78Z" fill="#059669" opacity="0.6"/>
    <path d="M12 42C26 38 31 28 50 42C31 56 26 46 12 42Z" fill="#059669" opacity="0.7"/>
    <path d="M76 16C68 24 66 34 50 42C58 28 63 21 76 16Z" fill="#059669" opacity="0.5"/>
    <path d="M24 68C32 60 34 50 50 42C42 56 37 63 24 68Z" fill="#059669" opacity="0.4"/>
    <circle cx="50" cy="42" r="5" fill="#059669"/>
  </g>
  <!-- Bloom text -->
  <text x="135" y="72" font-family="system-ui, -apple-system, sans-serif" font-size="56" font-weight="700" fill="#1c1917" letter-spacing="-2">Bloom</text>
  <!-- Tagline -->
  <text x="137" y="100" font-family="ui-monospace, monospace" font-size="14" fill="#a8a29e" letter-spacing="0.5">2-Sigma AI Tutor</text>
</svg>
